Coordinates
version=1
nRows=4
nColumns=107
inDegrees=yes

Units are S.I. units (second, meters, Newtons, ...)
If the header above contains a line with 'inDegrees', this indicates whether rotational values are in degrees (yes) or radians (no).

endheader
time	sternoclavicular_r2	sternoclavicular_r3	unrotscap_r3	unrotscap_r2	acromioclavicular_r2	acromioclavicular_r3	acromioclavicular_r1	unrothum_r1	unrothum_r3	unrothum_r2	elv_angle	shoulder_elv	shoulder1_r2	shoulder_rot	elbow_flexion	pro_sup	deviation	flexion	proximal_distal_r1	proximal_distal_r3	cmc_flexion	cmc_abduction	mp_flexion	ip_flexion	mcp2_flexion	mcp2_abduction	pm2_flexion	md2_flexion	mcp3_flexion	mcp3_abduction	pm3_flexion	md3_flexion	mcp4_flexion	mcp4_abduction	pm4_flexion	md4_flexion	mcp5_flexion	mcp5_abduction	pm5_flexion	md5_flexion	bicpt_tx	bicpt_ty	bicpt_tz	bicpt2_tx	bicpt2_ty	bicpt2_tz	ptpt_tx	ptpt_ty	ptpt_tz	FCUpt_tx	FCUpt_ty	FCUpt_tz	EDCpt_tx	EDCpt_ty	EDCpt_tz	APLpt_tx	APLpt_ty	APLpt_tz	FPLpt_tx	FPLpt_ty	FPLpt_tz	FPLpt2_tx	FPLpt2_ty	FPLpt2_tz	PEC1pt2_tx	PEC1pt2_ty	PEC1pt2_tz	PEC1pt3_tx	PEC1pt3_ty	PEC1pt3_tz	PEC2pt2_tx	PEC2pt2_ty	PEC2pt2_tz	PEC2pt3_tx	PEC2pt3_ty	PEC2pt3_tz	PEC3pt2_tx	PEC3pt2_ty	PEC3pt2_tz	PEC3pt3_tx	PEC3pt3_ty	PEC3pt3_tz	DELT2pt2a_tx	DELT2pt2a_ty	DELT2pt2a_tz	DELT2pt2_tx	DELT2pt2_ty	DELT2pt2_tz	LAT1pt2_tx	LAT1pt2_ty	LAT1pt2_tz	LAT1pt3_tx	LAT1pt3_ty	LAT1pt3_tz	LAT2pt2_tx	LAT2pt2_ty	LAT2pt2_tz	LAT2pt3_tx	LAT2pt3_ty	LAT2pt3_tz	LAT3pt2_tx	LAT3pt2_ty	LAT3pt2_tz	LAT3pt3_tx	LAT3pt3_ty	LAT3pt3_tz
      1.40000000	     -0.33103752	      0.14021187	     -0.14021187	      0.33103752	     -0.06702836	      0.54169966	      0.24349027	     -0.24349027	     -0.54169966	      0.06702836	     96.80605588	     78.37607470	     -1.68958441	    -14.70532202	     31.96237341	     58.29722112	      0.24895743	     -0.38442960	      0.28713963	     -0.19221480	     32.52923205	    -10.77893967	    -16.67025287	      2.94223477	      9.48338599	     12.35982404	     25.07752534	     23.99215148	     16.28410960	      6.84360837	     28.69520531	     26.53588490	      8.15875757	     -2.03882995	     35.04540524	     30.32521488	      0.46860517	    -13.86281699	     48.81744857	      5.37111356	      0.00095722	     -0.03126338	     -0.00489007	      0.01622568	     -0.01888274	     -0.00528210	      0.00324249	     -0.06768531	     -0.00474615	      0.00967404	     -0.18306691	     -0.00039026	     -0.00699565	      0.00217621	     -0.00007565	      0.00026956	      0.00010782	      0.00053912	      0.00034504	      0.00103512	      0.00058225	     -0.00001136	     -0.00022545	     -0.00027054	      0.00256900	      0.00901326	      0.00627009	     -0.00840366	      0.02029071	     -0.01924570	      0.00256900	      0.00901326	      0.00627009	      0.00056605	      0.01881027	     -0.00988410	      0.00403067	      0.00501216	      0.01616630	      0.00000000	      0.00821859	      0.00000000	     -0.00735865	     -0.03400654	     -0.00677896	      0.01053365	     -0.00027516	     -0.00169036	     -0.00091439	      0.01532689	     -0.00627009	      0.00252545	      0.02211949	     -0.01828777	     -0.00613946	      0.01328040	     -0.00561696	     -0.01280144	      0.02804124	     -0.03139400	     -0.02403535	      0.01484792	     -0.00753282	     -0.01593648	      0.03239547	     -0.03923161
      1.43333333	     -0.33076431	      0.14009615	     -0.14009615	      0.33076431	     -0.06697304	      0.54125258	      0.24328931	     -0.24328931	     -0.54125258	      0.06697304	     96.94857663	     78.31138965	     -1.69207187	    -15.09937158	     31.81081945	     58.67059695	      0.23638832	     -0.37273685	      0.27507510	     -0.18636842	     32.60725201	    -10.55655394	    -18.83189007	      2.85554640	      5.89849918	     11.95891991	     22.79928385	     21.72000537	     13.09950005	      6.05032640	     25.54761556	     24.62725477	      5.41995717	     -2.05321825	     31.15641632	     28.23447870	     -1.75370516	    -13.85368200	     44.56192758	      5.29416171	      0.00095220	     -0.03124601	     -0.00488728	      0.01621056	     -0.01884157	     -0.00523254	      0.00321490	     -0.06770314	     -0.00477623	      0.00971376	     -0.18305718	     -0.00038770	     -0.00704046	      0.00219354	     -0.00008207	      0.00026502	      0.00010601	      0.00053004	      0.00033922	      0.00101767	      0.00057244	     -0.00001141	     -0.00022450	     -0.00026940	      0.00256688	      0.00900582	      0.00626492	     -0.00839673	      0.02027397	     -0.01922981	      0.00256688	      0.00900582	      0.00626492	      0.00056558	      0.01879475	     -0.00987594	      0.00402827	      0.00500802	      0.01616064	      0.00000000	      0.00820493	      0.00000000	     -0.00735258	     -0.03397847	     -0.00676762	      0.01078779	     -0.00028642	     -0.00179371	     -0.00091363	      0.01531424	     -0.00626492	      0.00252337	      0.02210123	     -0.01827267	     -0.00613440	      0.01326944	     -0.00561232	     -0.01279087	      0.02801810	     -0.03136809	     -0.02401551	      0.01483567	     -0.00752660	     -0.01592333	      0.03236874	     -0.03919923
      1.46666667	     -0.32856337	      0.13916394	     -0.13916394	      0.32856337	     -0.06652740	      0.53765103	      0.24167044	     -0.24167044	     -0.53765103	      0.06652740	     97.35662493	     77.79029808	     -1.69919365	    -17.36172994	     32.04108113	     62.70550426	      0.24140276	     -0.31696902	      0.27991886	     -0.15848451	     33.02304387	    -10.44949979	    -20.40496338	      5.05376249	      3.08282671	     11.85481287	     22.76085432	     12.29051612	     11.54622361	      5.71399402	     22.37383579	     20.41872308	      5.60847181	     -1.85078277	     25.88397466	     24.84244562	      0.19866994	    -13.77903969	     36.58389374	      5.42418336	      0.00095982	     -0.03127240	     -0.00489153	      0.01602712	     -0.01890412	     -0.00468477	      0.00291677	     -0.06789592	     -0.00510126	      0.01014576	     -0.18294954	     -0.00035348	     -0.00752464	      0.00238344	     -0.00015628	      0.00024017	      0.00009607	      0.00048033	      0.00030741	      0.00092224	      0.00051876	     -0.00001174	     -0.00021973	     -0.00026368	      0.00254980	      0.00894589	      0.00622323	     -0.00834086	      0.02013906	     -0.01910186	      0.00254980	      0.00894589	      0.00622323	      0.00056182	      0.01866969	     -0.00981023	      0.00400891	      0.00497470	      0.01611474	      0.00000000	      0.00809529	      0.00000000	     -0.00730365	     -0.03375237	     -0.00667665	      0.01220729	     -0.00035232	     -0.00243841	     -0.00090755	      0.01521234	     -0.00622323	      0.00250658	      0.02195417	     -0.01815108	     -0.00609358	      0.01318114	     -0.00557498	     -0.01270576	      0.02783166	     -0.03115936	     -0.02385571	      0.01473695	     -0.00747652	     -0.01581737	      0.03215335	     -0.03893840
      1.50000000	     -0.32870894	      0.13922559	     -0.13922559	      0.32870894	     -0.06655687	      0.53788924	      0.24177751	     -0.24177751	     -0.53788924	      0.06655687	     97.44796137	     77.82476277	     -1.70078778	    -17.35142189	     31.82792147	     62.77992218	      0.23734600	     -0.30353171	      0.27600330	     -0.15176585	     32.91463825	     -9.84390691	    -21.25904214	      3.24030577	      0.82859894	     11.62565749	     22.86676140	      6.01672497	      9.96670289	      4.94540386	     19.49874442	     18.90307747	      4.77604191	     -2.12258352	     21.42809399	     23.84759260	     -0.67774640	    -13.79946442	     32.57060193	      5.35355449	      0.00095277	     -0.03124797	     -0.00488759	      0.01602353	     -0.01884621	     -0.00467454	      0.00291127	     -0.06789948	     -0.00510726	      0.01015375	     -0.18294753	     -0.00035278	     -0.00753357	      0.00238697	     -0.00015770	      0.00023342	      0.00009337	      0.00046684	      0.00029878	      0.00089633	      0.00050418	     -0.00001166	     -0.00022100	     -0.00026520	      0.00255092	      0.00894986	      0.00622599	     -0.00834455	      0.02014798	     -0.01911032	      0.00255092	      0.00894986	      0.00622599	      0.00056207	      0.01867796	     -0.00981458	      0.00401019	      0.00497690	      0.01611779	      0.00000000	      0.00810252	      0.00000000	     -0.00730689	     -0.03376733	     -0.00668265	      0.01220097	     -0.00035202	     -0.00243529	     -0.00090796	      0.01521908	     -0.00622599	      0.00250769	      0.02196390	     -0.01815913	     -0.00609628	      0.01318698	     -0.00557745	     -0.01271139	      0.02784399	     -0.03117317	     -0.02386628	      0.01474348	     -0.00747983	     -0.01582438	      0.03216760	     -0.03895565
